<svg width="120" height="120" viewBox="0 0 120 120" fill="none" xmlns="http://www.w3.org/2000/svg">
<g id="Chats">
<rect width="120" height="120" fill="black"/>
<g id="Ellipse 1">
<path d="M41.1 41.1C31.507 44.0785 21.6514 49.8486 12 59.5C17.2936 54.2064 28.1838 55.6157 38.5217 57.4761C38.5801 52.1674 39.3681 46.6781 41.1 41.1Z" fill="white"/>
<path d="M59.5 12C49.8486 21.6514 44.0785 31.507 41.1 41.1C46.6781 39.3681 52.1674 38.5801 57.4761 38.5217C55.6157 28.1838 54.2064 17.2936 59.5 12Z" fill="white"/>
<path d="M77.3768 77.3768C71.8409 79.1512 65.8807 80.2984 59.649 80.4616C61.1647 91.8123 63.2654 103.235 59.5 107C65.8813 100.619 73.2914 90.1223 77.3768 77.3768Z" fill="white"/>
<path d="M77.3768 77.3768C90.1223 73.2914 100.619 65.8813 107 59.5C103.235 63.2654 91.8123 61.1647 80.4616 59.649C80.2984 65.8807 79.1512 71.8409 77.3768 77.3768Z" fill="white"/>
<path fill-rule="evenodd" clip-rule="evenodd" d="M107 59.5C107 85.7335 85.7335 107 59.5 107C65.8813 100.619 73.2914 90.1223 77.3768 77.3768C90.1223 73.2914 100.619 65.8813 107 59.5ZM41.8705 78.1335C46.0025 90.5376 53.2454 100.745 59.5 107C33.2665 107 12 85.7335 12 59.5C21.91 69.41 32.0353 75.228 41.8705 78.1335ZM41.1 41.1C39.3681 46.6781 38.5801 52.1674 38.5217 57.4761C38.4415 64.784 39.744 71.7496 41.8705 78.1335C47.9472 79.9286 53.9131 80.6119 59.649 80.4616C65.8807 80.2984 71.8409 79.1512 77.3768 77.3768C79.1512 71.8409 80.2984 65.8807 80.4616 59.649C80.6119 53.9131 79.9286 47.9472 78.1335 41.8705C90.5376 46.0025 100.745 53.2454 107 59.5C107 33.2665 85.7335 12 59.5 12C33.2665 12 12 33.2665 12 59.5C21.6514 49.8486 31.507 44.0785 41.1 41.1ZM41.1 41.1C46.6781 39.3681 52.1674 38.5801 57.4761 38.5217C64.784 38.4415 71.7496 39.744 78.1335 41.8705C72.5465 40.0095 71.2422 43.5078 69.5874 47.9464C69.0153 49.481 68.4013 51.128 67.5538 52.7047C64.0382 53.924 60.7395 55.6329 59.5 59.5C55.6329 60.7395 53.924 64.0382 52.7047 67.5538C51.128 68.4013 49.481 69.0153 47.9463 69.5874C43.5078 71.2422 40.0095 72.5465 41.8705 78.1335C48.7894 80.1774 50.2408 75.4562 51.8595 70.191C52.1281 69.3174 52.4012 68.4289 52.7047 67.5538C55.5337 66.0334 58.1365 63.7616 59.4583 59.6324C59.472 59.5881 59.4859 59.5439 59.5 59.5C59.5439 59.4859 59.5881 59.472 59.6324 59.4583C63.7615 58.1365 66.0334 55.5337 67.5538 52.7047C68.4289 52.4012 69.3174 52.1281 70.191 51.8595C75.4562 50.2408 80.1774 48.7894 78.1335 41.8705C75.228 32.0353 69.41 21.91 59.5 12C49.8486 21.6514 44.0785 31.507 41.1 41.1Z" fill="white"/>
</g>
</g>
</svg>
